<svg width="534" height="534" viewBox="0 0 534 534" fill="none" xmlns="http://www.w3.org/2000/svg">
<path d="M533.333 266.667C533.333 119.391 413.943 0 266.667 0C119.391 0 0 119.391 0 266.667C0 399.768 97.516 510.089 225 530.094V343.75H157.292V266.667H225V207.917C225 141.083 264.811 104.167 325.724 104.167C354.9 104.167 385.417 109.375 385.417 109.375V175H351.791C318.664 175 308.334 195.556 308.334 216.645V266.667H382.292L370.469 343.75H308.333V530.094C435.817 510.089 533.333 399.768 533.333 266.667" fill="white"/>
<path d="M370.469 343.75L382.292 266.667H308.333V216.644C308.333 195.556 318.664 175 351.791 175H385.417V109.375C385.417 109.375 354.9 104.167 325.724 104.167C264.811 104.167 225 141.083 225 207.917V266.667H157.292V343.75H225V530.094C238.784 532.254 252.715 533.337 266.667 533.333C280.842 533.333 294.757 532.224 308.333 530.094V343.75H370.469Z" fill="#4285F4"/>
</svg>
