<svg xmlns="http://www.w3.org/2000/svg" viewBox="0 0 68 32.9"><defs><style>.cls-1{fill:#fafafa;}</style></defs><g id="Layer_2" data-name="Layer 2"><g id="Layer_1-2" data-name="Layer 1"><path class="cls-1" d="M27.23,22.76l-19.08-11A5.33,5.33,0,0,0,5.44,11,5.43,5.43,0,0,0,2.72,21.16l19.08,11a5.33,5.33,0,0,0,2.71.73,5.43,5.43,0,0,0,2.72-10.14Z"/><path class="cls-1" d="M65.28,11.75,46.2.73A5.33,5.33,0,0,0,43.49,0a5.43,5.43,0,0,0-2.72,10.14l19.08,11a5.43,5.43,0,1,0,5.43-9.41Z"/><path class="cls-1" d="M59.09,22.46l-8.9-5.14-9.42,5.44A5.43,5.43,0,0,0,43.49,32.9a5.33,5.33,0,0,0,2.71-.73l15.34-8.85A7,7,0,0,1,59.09,22.46Z"/><path class="cls-1" d="M8.91,10.44l8.9,5.14,9.42-5.44A5.43,5.43,0,1,0,21.8.73L6.46,9.58A7,7,0,0,1,8.91,10.44Z"/></g></g></svg>