<svg width="50" height="50" viewBox="0 0 50 50" fill="none" xmlns="http://www.w3.org/2000/svg">
<path fill-rule="evenodd" clip-rule="evenodd" d="M25 0C38.7972 0 50 11.1878 50 25C50 38.7972 38.8122 50 25 50C11.2028 50 0 38.8122 0 25C0 11.2028 11.1878 0 25 0ZM19.1512 11.2777H30.8488C35.243 11.2777 38.8272 14.832 38.8272 19.1512V30.8188C38.8272 35.153 35.243 38.6923 30.8488 38.6923H19.1512C14.757 38.6923 11.1728 35.153 11.1728 30.8188V19.1512C11.1728 14.817 14.772 11.2777 19.1512 11.2777ZM24.925 17.5915C29.1992 17.5915 32.6635 21.0558 32.6635 25.3299C32.6635 29.6041 29.1992 33.0684 24.925 33.0684C20.6509 33.0684 17.1866 29.6041 17.1866 25.3299C17.1866 21.0558 20.6509 17.5915 24.925 17.5915ZM24.925 20.201C27.7445 20.201 30.039 22.4955 30.039 25.3149C30.039 28.1344 27.7445 30.4289 24.925 30.4289C22.0906 30.4289 19.811 28.1344 19.811 25.3149C19.811 22.4955 22.1056 20.201 24.925 20.201ZM32.4085 16.5117C33.0984 16.5117 33.6683 17.0666 33.6683 17.7714C33.6683 18.4613 33.1134 19.0312 32.4085 19.0312C31.7187 19.0312 31.1488 18.4763 31.1488 17.7714C31.1488 17.0816 31.7037 16.5117 32.4085 16.5117ZM20.111 13.5123H29.889C33.5633 13.5123 36.5627 16.4967 36.5627 20.156V29.994C36.5627 33.6533 33.5633 36.6377 29.889 36.6377H20.111C16.4367 36.6377 13.4373 33.6533 13.4373 29.994V20.156C13.4373 16.4967 16.4367 13.5123 20.111 13.5123Z" fill="white"/>
</svg>
