<svg width="72" height="72" viewBox="0 0 72 72" fill="none" xmlns="http://www.w3.org/2000/svg">
<path fill-rule="evenodd" clip-rule="evenodd" d="M36 72C55.8823 72 72 55.8823 72 36C72 16.1177 55.8823 0 36 0C16.1177 0 0 16.1177 0 36C0 55.8823 16.1177 72 36 72Z" fill="white"/>
<path fill-rule="evenodd" clip-rule="evenodd" d="M58 56H48.9594V40.6018C48.9594 36.38 47.3552 34.0208 44.0137 34.0208C40.3785 34.0208 38.4793 36.4759 38.4793 40.6018V56H29.7667V26.6667H38.4793V30.6179C38.4793 30.6179 41.099 25.7705 47.3237 25.7705C53.5456 25.7705 58 29.5699 58 37.4279V56ZM19.3725 22.8257C16.4048 22.8257 14 20.402 14 17.4129C14 14.4237 16.4048 12 19.3725 12C22.3402 12 24.7436 14.4237 24.7436 17.4129C24.7436 20.402 22.3402 22.8257 19.3725 22.8257ZM14.8737 56H23.9587V26.6667H14.8737V56Z" fill="#4285F4"/>
</svg>
